Coordinates
version=1
nRows=26
nColumns=24
inDegrees=yes

Units are S.I. units (second, meters, Newtons, ...)
Angles are in degrees.

endheader
time	pelvis_tilt	pelvis_list	pelvis_rotation	pelvis_tx	pelvis_ty	pelvis_tz	hip_flexion_r	hip_adduction_r	hip_rotation_r	knee_angle_r	ankle_angle_r	subtalar_angle_r	mtp_angle_r	hip_flexion_l	hip_adduction_l	hip_rotation_l	knee_angle_l	ankle_angle_l	subtalar_angle_l	mtp_angle_l	lumbar_extension	lumbar_bending	lumbar_rotation
      3.69500000	     -9.93346888	      0.00858891	      5.36083870	     -1.69771495	     -0.02380139	     -0.67757859	     32.50534354	     -2.18526342	    -12.65911018	    -13.98456720	     -5.02419488	     -6.17277105	      9.66401668	     -5.37027937	      1.95383898	    -11.41882345	    -14.85177325	      8.96354228	      7.43253197	     10.00400660	      7.35421835	      1.62625599	    -10.46959056
      3.70000000	     -9.96779333	     -0.14147883	      5.16654694	     -1.69125046	     -0.02431193	     -0.67657438	     32.61772908	     -1.85173162	    -12.03808817	    -14.70609246	     -5.61728677	     -7.17887874	      8.54777671	     -5.29263680	      1.58149454	    -11.71298658	    -15.70558217	      8.62540470	      7.73227610	      9.84919739	      7.51552391	      1.84016490	    -10.35186021
      3.70500000	    -10.01641541	     -0.37634993	      5.07546878	     -1.68469761	     -0.02469908	     -0.67573072	     32.70250942	     -1.51121808	    -11.65672331	    -15.39337091	     -6.09134381	     -8.02195705	      7.24771515	     -5.14492017	      1.11841960	    -11.82727451	    -16.63076700	      8.19468062	      7.85520144	      9.67604380	      7.71953146	      2.12723505	    -10.37677105
      3.71000000	    -10.06295455	     -0.59848655	      4.98440783	     -1.67817452	     -0.02497938	     -0.67488336	     32.77896908	     -1.19880325	    -11.36899014	    -16.06629791	     -6.54662957	     -8.79197350	      6.20323140	     -4.96330559	      0.66351529	    -11.93659932	    -17.60421377	      7.67683541	      7.96820604	      9.51594474	      7.91297214	      2.40197299	    -10.41949881
      3.71500000	    -10.11201578	     -0.81050375	      4.88438640	     -1.67165030	     -0.02515440	     -0.67400870	     32.83508125	     -0.89480015	    -11.10392549	    -16.70351852	     -6.95782001	     -9.52400086	      5.28881105	     -4.73889836	      0.21122622	    -12.06977666	    -18.63430681	      7.05836370	      8.06539773	      9.36237426	      8.10496515	      2.66700851	    -10.46061148
      3.72000000	    -10.13946687	     -1.04598060	      4.83815977	     -1.66509588	     -0.02522780	     -0.67326012	     32.82643966	     -0.61477517	    -11.00040117	    -17.28160462	     -7.27876179	    -10.15231418	      4.88476479	     -4.48222948	     -0.26367659	    -12.09988550	    -19.73682499	      6.34984423	      8.00943349	      9.24615798	      8.28065515	      2.95884495	    -10.57889841
      3.72500000	    -10.19664285	     -1.22129126	      4.61566552	     -1.65851425	     -0.02531533	     -0.67213990	     32.85742253	     -0.25283667	    -10.57328301	    -17.89648256	     -7.37828644	    -10.79184498	      3.54554004	     -4.17113863	     -0.71339448	    -12.50427176	    -20.91056378	      5.59895598	      8.15883399	      9.15624427	      8.47371962	      3.19869796	    -10.45822819
      3.73000000	    -10.19684863	     -1.40587353	      4.56509804	     -1.65191213	     -0.02514292	     -0.67134860	     32.74103097	     -0.00625223	    -10.51031143	    -18.36499648	     -7.51114853	    -11.31746291	      3.31742249	     -3.86259557	     -1.15339273	    -12.55349684	    -22.11572027	      4.62111353	      8.02313663	      9.04310517	      8.62036720	      3.43955173	    -10.55051992
      3.73500000	    -10.22501841	     -1.54353482	      4.41572115	     -1.64543883	     -0.02498793	     -0.67033861	     32.65065816	      0.27974939	    -10.20546717	    -18.81275138	     -7.58743627	    -11.89542727	      2.95728943	     -3.46489392	     -1.56832420	    -12.77316264	    -23.42233692	      3.58783576	      7.94869871	      9.03413900	      8.75812351	      3.63526564	    -10.52831263
      3.74000000	    -10.20695353	     -1.68111896	      4.27085050	     -1.63879286	     -0.02471183	     -0.66935579	     32.45504941	      0.56259792	    -10.05250958	    -19.19442397	     -7.47297481	    -12.28897012	      2.73348226	     -3.10199795	     -1.99330418	    -13.02075478	    -24.73685393	      2.37536435	      7.78143181	      9.01196545	      8.88068395	      3.83147650	    -10.47992108
      3.74500000	    -10.23827754	     -1.77803808	      4.04809253	     -1.63238294	     -0.02448106	     -0.66810073	     32.31766745	      0.89371018	     -9.64230538	    -19.57977072	     -7.26214993	    -12.71562479	      1.75149503	     -2.61727243	     -2.42282247	    -13.42170517	    -26.11903698	      0.89126685	      7.66239721	     10.04707919	      8.99854224	      3.98198956	    -10.36031260
      3.75000000	    -10.15392461	     -1.91684160	      3.95285327	     -1.62594202	     -0.02398942	     -0.66720296	     31.96599364	      1.17527416	     -9.49982194	    -19.80558289	     -7.09307207	    -13.03901483	      1.69771086	     -2.20464323	     -2.84823702	    -13.47776481	    -27.55704884	     -0.59455457	      7.27114169	      9.98983516	      9.01602928	      4.17998358	    -10.36629157
      3.75500000	    -10.19272214	     -2.01629559	      3.75297676	     -1.61958461	     -0.02367593	     -0.66604766	     31.75867263	      1.49952867	     -9.18039518	    -20.04369184	     -6.85871795	    -13.43993830	      1.26714662	     -1.62952977	     -3.27023331	    -13.74746669	    -28.99676569	     -2.44610451	      6.85006400	     11.21879760	      9.14313692	      4.33788768	    -10.24547575
      3.76000000	    -10.09090255	     -2.18310447	      3.63276705	     -1.61324534	     -0.02313952	     -0.66515666	     31.33261555	      1.83515929	     -9.07290856	    -20.16109555	     -6.62491990	    -13.72025859	      1.23458129	     -1.15239109	     -3.73279949	    -13.79395780	    -30.52871431	     -4.09678656	      6.37172070	     11.05985359	      9.12640519	      4.57715288	    -10.18885716
      3.76500000	    -10.05990756	     -2.27594638	      3.50682935	     -1.60719914	     -0.02267073	     -0.66414725	     30.99660606	      2.12436311	     -8.79667120	    -20.28483930	     -6.42949378	    -14.13521279	      1.01551316	     -0.53663823	     -4.11252289	    -13.78895734	    -32.09502220	     -5.94195673	      5.78688818	     11.26655076	      9.13466183	      4.71386670	    -10.15284550
      3.77000000	    -10.10867558	     -2.46073016	      3.30529171	     -1.60105522	     -0.02234390	     -0.66306486	     30.72925864	      2.53432500	     -8.55504716	    -20.39503871	     -6.08488974	    -14.31501642	      0.35201201	      0.16702076	     -4.61209855	    -13.89624171	    -33.64185022	     -7.93641221	      5.17943065	     12.41653919	      9.24876995	      4.96369387	     -9.98912678
      3.77500000	    -10.00961580	     -2.65817502	      3.17951899	     -1.59508805	     -0.02181208	     -0.66218672	     30.26780403	      2.90951067	     -8.46424972	    -20.41225838	     -5.87365461	    -14.56252658	      0.27566378	      0.77016053	     -5.09570400	    -13.83925993	    -35.27851993	     -9.59558395	      4.61041180	     12.19461126	      9.17866318	      5.22905283	     -9.88797043
      3.78000000	    -10.06496797	     -2.82743505	      3.02279029	     -1.58923147	     -0.02148870	     -0.66125034	     29.98054660	      3.27062241	     -8.24512036	    -20.45481212	     -5.55120122	    -14.72872076	     -0.16478250	      1.56910267	     -5.53163078	    -13.75871066	    -36.92364752	    -11.26159063	      3.96279791	     12.45279602	      9.26081929	      5.45663846	     -9.75246965
      3.78500000	     -9.98437590	     -3.02591130	      2.88927230	     -1.58344618	     -0.02097506	     -0.66041014	     29.51600410	      3.63975769	     -8.17407391	    -20.42183599	     -5.32210480	    -14.88223114	     -0.25078872	      2.23753341	     -5.99691294	    -13.67144485	    -38.57204273	    -12.70990473	      3.37213742	     12.27694219	      9.18359457	      5.72053259	     -9.63487510
      3.79000000	     -9.96025291	     -3.21449110	      2.74540703	     -1.57775827	     -0.02052982	     -0.65960802	     29.10796624	      3.99133496	     -8.07703091	    -20.37898337	     -5.06695229	    -14.95841863	     -0.34794001	      2.98692939	     -6.42797471	    -13.55892469	    -40.22131987	    -14.01206034	      2.71782447	     12.18009131	      9.15307307	      5.97914596	     -9.49625016
      3.79500000	     -9.95542164	     -3.38869706	      2.60728049	     -1.57214371	     -0.02009262	     -0.65884555	     28.70909384	      4.31683656	     -7.98501364	    -20.31751921	     -4.78169032	    -14.96926055	     -0.45272098	      3.77090652	     -6.82279220	    -13.42310676	    -41.85095501	    -15.17576465	      1.99567725	     12.17787900	      9.13289822	      6.21891450	     -9.34393606
      3.80000000	     -9.93608563	     -3.56207266	      2.46065608	     -1.56657442	     -0.01962566	     -0.65809547	     28.27823144	      4.63712017	     -7.92265810	    -20.22364012	     -4.48803332	    -14.91242605	     -0.50540063	      4.54450079	     -7.21653128	    -13.33548050	    -43.45811567	    -16.17444943	      1.23526966	     12.20816954	      9.08636421	      6.46124628	     -9.17197390
      3.80500000	     -9.92468518	     -3.70768904	      2.33417743	     -1.56105515	     -0.01913592	     -0.65741003	     27.84219579	      4.91263345	     -7.86386993	    -20.11044680	     -4.17848546	    -14.81881189	     -0.53624957	      5.33587780	     -7.55210046	    -13.21319685	    -45.02289853	    -17.05182619	      0.36710079	     12.32049530	      9.04753842	      6.66441886	     -8.99700097
      3.81000000	     -9.89204496	     -3.86099727	      2.19014007	     -1.55557146	     -0.01861037	     -0.65670023	     27.37012752	      5.20054925	     -7.81880701	    -19.96799438	     -3.88382771	    -14.68410519	     -0.50394255	      6.10753486	     -7.90273845	    -13.15137046	    -46.56164558	    -17.76053878	     -0.52292763	     12.40724280	      8.97557706	      6.87891803	     -8.81007793
      3.81500000	     -9.84281015	     -4.02760243	      2.03378060	     -1.55000709	     -0.01805803	     -0.65597171	     26.84577396	      5.51072834	     -7.75395037	    -19.77499704	     -3.57011051	    -14.53346189	     -0.42276309	      6.85111328	     -8.27781085	    -13.14536235	    -48.06134637	    -18.27750876	     -1.37759366	     12.41877279	      8.90138726	      7.10770138	     -8.61148354
      3.82000000	     -9.82475466	     -4.12147678	      1.94188676	     -1.54468204	     -0.01748809	     -0.65537096	     26.37651456	      5.70460801	     -7.73924682	    -19.60162164	     -3.29415775	    -14.40007239	     -0.32648724	      7.67632266	     -8.51553280	    -13.02903120	    -49.52430573	    -18.75628940	     -2.46078722	     12.43520145	      8.82387406	      7.24295709	     -8.43649104
